# xmcd
#
# Track frame offsets:
#	150
#	12346
#	29055
#	49379
#	59965
#	73532
#	86200
#	99648
#	115833
#	135387
#	158524
#	171615
#	188977
#	199449
#	214936
#	226232
#
# Disc length: 3184 seconds
#
# Revision: 0
# Processed by: cddbd v1.5.2PL0 Copyright (c) Steve Scherf et al.
# Submitted via: EasyCDDAExtractor 12.0.1.1
#
DISCID=f60c6e10
DTITLE=Various Artist - 배철수의 음악캠프 25주년 기념 앨범 [2CD]  Simon and Garfunkel에서 Queen
DTITLE=까지
DYEAR=1900
DGENRE=
TTITLE0=Elvis Presley - Love Me Tender (빌보드 1위)
TTITLE1=Michael Jackson - Maria (You Were The Only One)
TTITLE2=The Animals - The House Of The Rising Sun (UK차트, 빌보드 1위)
TTITLE3=The Everly Brothers - All I Have To Do Is Dream (UK차트, 빌보드 1위)
TTITLE4=Scott McKenzie - San Francisco (Be Sure To Wear Flowers In Your Hair) 
TTITLE4=(UK 차트 1위)
TTITLE5=Bob Dylan - Blowin' In The Wind
TTITLE6=Roy Orbison - Oh Pretty Woman (UK차트, 빌보드 1위)
TTITLE7=Dusty Springfield - The Look Of Love
TTITLE8=The Hollies - He Ain't Heavy, He's My Brother (UK 차트 1위)
TTITLE9=Alice Cooper - You And Me
TTITLE10=Stevie Wonder - My Cherie Amour
TTITLE11=Marvin Gaye - What's Going On
TTITLE12=Louis Armstrong - What A Wonderful World (UK 차트 1위)
TTITLE13=Billie Holiday - I'm A Fool To Want You
TTITLE14=James Brown - I Got You (I Feel Good) (빌보드 1위)
TTITLE15=Ben E.King - Stand By Me (UK차트, 빌보드 1위)
EXTD=
EXTT0=
EXTT1=
EXTT2=
EXTT3=
EXTT4=
EXTT5=
EXTT6=
EXTT7=
EXTT8=
EXTT9=
EXTT10=
EXTT11=
EXTT12=
EXTT13=
EXTT14=
EXTT15=
PLAYORDER=
